<svg xmlns="http://www.w3.org/2000/svg" width="56" height="56" fill="none">
  <rect width="56" height="56" fill="#E0F2FF" rx="6"/>
  <path fill="#0265DC" d="M10 37.2V18h7.4925c1.3448 0 2.5324.2319 3.5628.6958 1.0479.4639 1.8688 1.1512 2.4626 2.0618.5938.9106.8907 2.036.8907 3.3761 0 1.3058-.3056 2.414-.9169 3.3246-.5938.9106-1.4147 1.6064-2.4626 2.0875-1.0304.4639-2.2093.6958-3.5366.6958h-3.4319V37.2H10Zm4.0606-10.4376h3.4581c.5763 0 1.0741-.1117 1.4932-.335.4192-.2234.7423-.5326.9693-.9278.2445-.3952.3668-.8505.3668-1.3659 0-.5326-.1223-.9965-.3668-1.3917-.227-.3952-.5501-.7044-.9693-.9278-.4191-.2233-.9169-.335-1.4932-.335h-3.4581v5.2832ZM26.2009 37.2V23.1286h3.9296V37.2h-3.9296Zm0-15.3342V18h3.9296v3.8658h-3.9296ZM31.3556 37.2l5.0037-7.0615-5.0299-7.0099h4.5584l3.7724 5.4636h-1.991l3.7724-5.4636H46l-5.0299 7.0099L45.9476 37.2h-4.5322l-3.6938-5.4636h1.8862L35.914 37.2h-4.5584Z"/>
</svg>
