<svg width="8.025391" height="6.011963" viewBox="0 0 8.02539 6.01196" fill="none" xmlns="http://www.w3.org/2000/svg" xmlns:xlink="http://www.w3.org/1999/xlink">
	<defs/>
	<path id="Mark" d="M1.71 2.3C1.62 2.2 1.51 2.13 1.39 2.08C1.27 2.02 1.14 2 1 2C0.87 1.99 0.74 2.02 0.62 2.07C0.49 2.12 0.38 2.19 0.29 2.29C0.19 2.38 0.12 2.49 0.07 2.62C0.02 2.74 -0.01 2.87 0 3C0 3.14 0.02 3.27 0.08 3.39C0.13 3.51 0.2 3.62 0.3 3.71L2.3 5.71C2.49 5.9 2.74 6.01 3.01 6.01C3.27 6.01 3.53 5.9 3.71 5.71L7.71 1.71C7.81 1.62 7.89 1.51 7.94 1.39C7.99 1.27 8.02 1.14 8.02 1C8.02 0.87 8 0.74 7.94 0.62C7.9 0.49 7.82 0.38 7.73 0.29C7.63 0.19 7.52 0.12 7.4 0.07C7.28 0.02 7.14 -0.01 7.01 0C6.88 0 6.75 0.02 6.63 0.08C6.5 0.13 6.39 0.2 6.3 0.3L3.01 3.59L1.71 2.3Z" fill="rgb(245, 248, 251)" fill-opacity="1.000000" fill-rule="evenodd"/>
</svg>
