<svg xmlns="http://www.w3.org/2000/svg" style="display: none;">
    <symbol id="pixmart-logo" viewBox="0 0 108 22" fill="none" xmlns="http://www.w3.org/2000/svg">
<g>
<path d="M0 21.1546V0.714355H7.87385C9.28711 0.714355 10.5352 0.961285 11.6181 1.45514C12.7193 1.949 13.5819 2.68065 14.206 3.65008C14.83 4.6195 15.142 5.81757 15.142 7.24427C15.142 8.6344 14.8208 9.81417 14.1784 10.7836C13.5544 11.753 12.6918 12.4938 11.5905 13.006C10.5076 13.4998 9.26875 13.7468 7.87385 13.7468H4.2673V21.1546H0ZM4.2673 10.0428H7.90138C8.50706 10.0428 9.03015 9.92392 9.47065 9.68613C9.91114 9.44835 10.2507 9.11911 10.4893 8.69841C10.7462 8.27772 10.8747 7.793 10.8747 7.24427C10.8747 6.67725 10.7462 6.18339 10.4893 5.76269C10.2507 5.342 9.91114 5.01276 9.47065 4.77498C9.03015 4.53719 8.50706 4.4183 7.90138 4.4183H4.2673V10.0428Z" fill="#0265DC"/>
<path d="M17.0255 21.1546V6.17424H21.1552V21.1546H17.0255ZM17.0255 4.82985V0.714355H21.1552V4.82985H17.0255Z" fill="#0265DC"/>
<path d="M22.4427 21.1546L27.7011 13.637L22.4151 6.17424H27.2055L31.17 11.9908H29.0776L33.0421 6.17424H37.8325L32.5465 13.637L37.7774 21.1546H33.0146L29.1327 15.3381H31.1149L27.2331 21.1546H22.4427Z" fill="#0265DC"/>
<path d="M39.0998 21.1546V6.17424H42.9541V9.82332L42.5411 9.21971C42.7614 8.06737 43.2936 7.21684 44.1379 6.6681C44.9822 6.11937 45.9917 5.84501 47.1663 5.84501C48.4144 5.84501 49.5065 6.1651 50.4425 6.80529C51.3969 7.42718 51.9934 8.26857 52.232 9.32946L51.0482 9.4392C51.5437 8.2137 52.2504 7.30829 53.1681 6.72298C54.0858 6.13766 55.1595 5.84501 56.3892 5.84501C57.4721 5.84501 58.4265 6.08279 59.2524 6.55836C60.0967 7.03393 60.7574 7.70155 61.2346 8.56123C61.7119 9.40262 61.9505 10.3903 61.9505 11.5244V21.1546H57.8208V12.4024C57.8208 11.817 57.7107 11.314 57.4904 10.8933C57.2885 10.4726 56.9949 10.1434 56.6094 9.90563C56.224 9.66784 55.756 9.54895 55.2054 9.54895C54.6731 9.54895 54.2051 9.66784 53.8013 9.90563C53.4159 10.1434 53.113 10.4726 52.8928 10.8933C52.6909 11.314 52.5899 11.817 52.5899 12.4024V21.1546H48.4603V12.4024C48.4603 11.817 48.3502 11.314 48.1299 10.8933C47.928 10.4726 47.6344 10.1434 47.2489 9.90563C46.8635 9.66784 46.3955 9.54895 45.8448 9.54895C45.3126 9.54895 44.8446 9.66784 44.4408 9.90563C44.0553 10.1434 43.7525 10.4726 43.5322 10.8933C43.3303 11.314 43.2294 11.817 43.2294 12.4024V21.1546H39.0998Z" fill="#0265DC"/>
<path d="M68.7702 21.4839C67.6873 21.4839 66.7512 21.3101 65.962 20.9626C65.1728 20.6151 64.5671 20.1212 64.145 19.481C63.7228 18.8225 63.5118 18.0452 63.5118 17.1489C63.5118 16.3075 63.7045 15.5667 64.0899 14.9265C64.4753 14.268 65.0627 13.7193 65.8519 13.2803C66.6595 12.8413 67.6598 12.5304 68.8528 12.3475L73.4504 11.6067V14.6247L69.5961 15.3106C69.0088 15.4204 68.5591 15.6124 68.2471 15.8868C67.9351 16.1429 67.7791 16.5179 67.7791 17.0117C67.7791 17.469 67.9534 17.8257 68.3021 18.0817C68.6509 18.3378 69.0822 18.4659 69.5961 18.4659C70.2752 18.4659 70.8717 18.3195 71.3856 18.0269C71.8995 17.7342 72.2941 17.341 72.5694 16.8471C72.8631 16.3349 73.0099 15.7771 73.0099 15.1735V11.2775C73.0099 10.7104 72.7805 10.2349 72.3217 9.85075C71.8812 9.46664 71.2755 9.27458 70.5046 9.27458C69.7705 9.27458 69.1189 9.47579 68.5499 9.87819C67.9993 10.2806 67.5955 10.811 67.3386 11.4695L64.0349 9.90563C64.3285 9.06424 64.7965 8.34174 65.4389 7.73813C66.0813 7.13453 66.8522 6.6681 67.7515 6.33886C68.6509 6.00962 69.6328 5.84501 70.6973 5.84501C71.9638 5.84501 73.0834 6.07364 74.0561 6.53092C75.0289 6.9882 75.7814 7.62839 76.3137 8.45148C76.8643 9.25629 77.1396 10.1983 77.1396 11.2775V21.1546H73.2852V18.7402L74.2213 18.5756C73.7808 19.2341 73.2944 19.7828 72.7622 20.2218C72.2299 20.6425 71.6334 20.9534 70.9727 21.1546C70.3119 21.3741 69.5778 21.4839 68.7702 21.4839Z" fill="#0265DC"/>
<path d="M79.6176 21.1546V6.17424H83.4719V9.76844L83.1966 9.24715C83.527 7.98506 84.0684 7.13453 84.8209 6.69554C85.5918 6.23826 86.5003 6.00962 87.5465 6.00962H88.4275V9.57639H87.1335C86.1241 9.57639 85.3073 9.88733 84.6833 10.5092C84.0592 11.1128 83.7472 11.9725 83.7472 13.0883V21.1546H79.6176Z" fill="#0265DC"/>
<path d="M97.4652 21.3193C95.6481 21.3193 94.2349 20.8345 93.2254 19.8651C92.2343 18.8774 91.7387 17.5056 91.7387 15.7496V9.74101H89.2059V6.17424H89.3435C90.1144 6.17424 90.7017 5.98219 91.1055 5.59808C91.5277 5.21396 91.7387 4.63779 91.7387 3.86957V2.7721H95.8684V6.17424H99.3923V9.74101H95.8684V15.4753C95.8684 15.9874 95.9601 16.4172 96.1437 16.7648C96.3272 17.094 96.6117 17.341 96.9971 17.5056C97.3826 17.6702 97.8598 17.7525 98.4287 17.7525C98.5572 17.7525 98.7041 17.7434 98.8692 17.7251C99.0344 17.7068 99.2088 17.6885 99.3923 17.6702V21.1546C99.117 21.1912 98.805 21.2278 98.4563 21.2644C98.1076 21.301 97.7772 21.3193 97.4652 21.3193Z" fill="#0265DC"/>
<path d="M103.299 21.1546V17.0391H107.429V21.1546H103.299Z" fill="#0265DC"/>
</g>
    </symbol>
    <symbol id="cart-icon" viewBox="0 0 22 22" fill="none" xmlns="http://www.w3.org/2000/svg">
<path  d="M14.9984 8V5C14.9984 2.79086 13.2076 1 10.9984 1C8.78928 1 6.99842 2.79086 6.99842 5V8M2.59042 9.35196L1.99042 15.752C1.81982 17.5717 1.73452 18.4815 2.03647 19.1843C2.30171 19.8016 2.76653 20.3121 3.35643 20.6338C4.02794 21 4.94178 21 6.76946 21H15.2274C17.055 21 17.9689 21 18.6404 20.6338C19.2303 20.3121 19.6951 19.8016 19.9604 19.1843C20.2623 18.4815 20.177 17.5717 20.0064 15.752L19.4064 9.35197C19.2624 7.81535 19.1903 7.04704 18.8448 6.46616C18.5404 5.95458 18.0908 5.54511 17.553 5.28984C16.9424 5 16.1707 5 14.6274 5L7.36946 5C5.82611 5 5.05443 5 4.44383 5.28984C3.90608 5.54511 3.45642 5.95458 3.15208 6.46616C2.80651 7.04704 2.73448 7.81534 2.59042 9.35196Z" stroke="#F8F7FF" stroke-width="2" stroke-linecap="round" stroke-linejoin="round"/>
    </symbol>
    <symbol id="play-ico" viewBox="0 0 14 16" fill="none">
<path d="M13.5 7.13397C14.1667 7.51887 14.1667 8.48112 13.5 8.86602L1.5 15.7942C0.833334 16.1791 0 15.698 0 14.9282L0 1.0718C0 0.301996 0.833333 -0.179129 1.5 0.205771L13.5 7.13397Z" fill="#0265DC"/>
    </symbol>

    <symbol id="hero_svg-1" viewBox="0 0 32 32" fill="none" xmlns="http://www.w3.org/2000/svg">
<g clip-path="url(#clip0_3364_7584)">
<path d="M31.7228 23.2826L28.4428 21.6426L26.3553 16.2126C26.3307 16.1484 26.2932 16.0899 26.245 16.0409C26.1968 15.9918 26.1391 15.9533 26.0753 15.9276L13.1228 10.7501C13.0322 10.714 12.9331 10.7052 12.8376 10.7248C12.7421 10.7443 12.6544 10.7913 12.5853 10.8601L10.8578 12.5876C10.79 12.6567 10.7437 12.7441 10.7246 12.8391C10.7056 12.9341 10.7145 13.0326 10.7503 13.1226L15.9278 26.0751C15.9535 26.1388 15.9921 26.1966 16.0411 26.2448C16.0902 26.2929 16.1486 26.3305 16.2128 26.3551L21.6428 28.4426L23.2828 31.7226C23.3173 31.7949 23.3688 31.8578 23.4327 31.9061C23.4967 31.9544 23.5713 31.9866 23.6503 32.0001C23.6769 32.0025 23.7037 32.0025 23.7303 32.0001C23.8627 31.9995 23.9895 31.9465 24.0828 31.8526L31.8528 24.0826C31.91 24.0274 31.9532 23.9594 31.9789 23.8841C32.0045 23.8089 32.0119 23.7287 32.0003 23.6501C31.9869 23.571 31.9547 23.4964 31.9064 23.4325C31.8581 23.3685 31.7951 23.3171 31.7228 23.2826ZM11.7978 13.0576L12.0753 12.7826L18.5228 19.2301C18.0979 19.8322 17.9144 20.5718 18.0086 21.3027C18.1027 22.0336 18.4677 22.7025 19.0314 23.1773C19.595 23.652 20.3163 23.898 21.0526 23.8665C21.7888 23.835 22.4865 23.5284 23.0076 23.0073C23.5287 22.4862 23.8353 21.7886 23.8667 21.0523C23.8982 20.3161 23.6523 19.5948 23.1775 19.0311C22.7028 18.4675 22.0338 18.1025 21.3029 18.0083C20.572 17.9141 19.8324 18.0976 19.2303 18.5226L12.7828 12.0751L13.0578 11.7976L25.5003 16.7751L27.4628 21.8801L21.8803 27.4626L16.7753 25.5001L11.7978 13.0576ZM20.9253 18.9826C21.3747 18.9832 21.8099 19.1397 22.1569 19.4253C22.5038 19.7108 22.7411 20.1079 22.8281 20.5487C22.9152 20.9896 22.8467 21.447 22.6343 21.843C22.422 22.239 22.0789 22.5492 21.6635 22.7206C21.2481 22.8921 20.7861 22.9142 20.3563 22.7832C19.9264 22.6523 19.5553 22.3763 19.306 22.0024C19.0568 21.6285 18.9449 21.1797 18.9895 20.7325C19.034 20.2854 19.2322 19.8675 19.5503 19.5501C19.9153 19.1862 20.4099 18.9821 20.9253 18.9826ZM23.8678 30.6551L22.6178 28.1551L28.1503 22.6226L30.6503 23.8726L23.8678 30.6551Z" fill="#0F73F6"/>
<path d="M9.56209 26.7499C9.46647 26.6596 9.3399 26.6092 9.20833 26.6092C9.07677 26.6092 8.9502 26.6596 8.85458 26.7499L8.21959 27.3849C6.52503 25.0851 5.59021 22.3138 5.54539 19.4574C5.50058 16.6011 6.34801 13.8018 7.96958 11.4499C8.45541 11.7173 9.01478 11.82 9.56388 11.7426C10.113 11.6653 10.6222 11.4121 11.0153 11.021C11.4084 10.6299 11.6641 10.1219 11.7442 9.57319C11.8243 9.02449 11.7245 8.46461 11.4596 7.97745C13.8115 6.35587 16.6107 5.50844 19.4671 5.55326C22.3235 5.59807 25.0947 6.53289 27.3946 8.22745L26.7496 8.85495C26.6566 8.94869 26.6045 9.07541 26.6046 9.20745C26.6042 9.27325 26.6168 9.33848 26.6417 9.3994C26.6666 9.46032 26.7032 9.51573 26.7496 9.56245L28.9546 11.7499C29.0483 11.8431 29.175 11.8953 29.3071 11.8953C29.4392 11.8953 29.5659 11.8431 29.6596 11.7499L31.8521 9.55745C31.8986 9.51101 31.9355 9.45586 31.9606 9.39517C31.9858 9.33447 31.9987 9.2694 31.9987 9.2037C31.9987 9.13799 31.9858 9.07292 31.9606 9.01223C31.9355 8.95153 31.8986 8.89638 31.8521 8.84995L29.6596 6.65745C29.5659 6.56432 29.4392 6.51205 29.3071 6.51205C29.175 6.51205 29.0483 6.56432 28.9546 6.65745L28.1071 7.49995C26.0183 5.92819 23.5489 4.94069 20.9523 4.63885C18.3558 4.33702 15.7257 4.73173 13.3321 5.78245L16.2146 2.90745C16.5414 3.06362 16.913 3.09897 17.2634 3.00722C17.6138 2.91548 17.9204 2.70258 18.1288 2.40629C18.3372 2.11001 18.4339 1.74948 18.4017 1.38868C18.3696 1.02788 18.2107 0.690131 17.9532 0.43535C17.6957 0.180569 17.3563 0.0252291 16.9952 -0.00311238C16.6341 -0.0314539 16.2746 0.0690358 15.9805 0.280529C15.6864 0.492022 15.4768 0.800846 15.3888 1.15221C15.3007 1.50358 15.34 1.87478 15.4996 2.19995L10.6346 7.07245C10.1406 6.7411 9.54694 6.59153 8.95495 6.6493C8.36296 6.70706 7.80939 6.96858 7.3888 7.38916C6.96821 7.80975 6.7067 8.36332 6.64894 8.95531C6.59117 9.5473 6.74074 10.141 7.07208 10.6349L2.19958 15.4999C1.87314 15.3409 1.50087 15.3027 1.14894 15.3922C0.796997 15.4817 0.48818 15.693 0.277359 15.9887C0.0665389 16.2844 -0.0326304 16.6452 -0.00252665 17.0071C0.0275771 17.369 0.185004 17.7085 0.441781 17.9653C0.698557 18.222 1.03805 18.3795 1.39994 18.4096C1.76183 18.4397 2.12267 18.3405 2.41834 18.1297C2.71401 17.9188 2.92537 17.61 3.01486 17.2581C3.10434 16.9062 3.06615 16.5339 2.90708 16.2074L5.78958 13.3324C4.73782 15.7254 4.34186 18.3551 4.64238 20.9517C4.94289 23.5482 5.92904 26.018 7.49958 28.1074L6.65458 28.9549C6.56146 29.0486 6.50919 29.1754 6.50919 29.3074C6.50919 29.4395 6.56146 29.5663 6.65458 29.6599L8.84708 31.8524C8.94042 31.9463 9.06719 31.9994 9.19958 31.9999C9.26556 32 9.3309 31.987 9.39183 31.9617C9.45276 31.9364 9.50807 31.8992 9.55459 31.8524L11.7496 29.6599C11.8427 29.5663 11.895 29.4395 11.895 29.3074C11.895 29.1754 11.8427 29.0486 11.7496 28.9549L9.56209 26.7499ZM29.3121 7.71245L30.7971 9.19745L29.3121 10.6824L27.8271 9.19745L29.3121 7.71245ZM16.4996 1.15745C16.5739 1.08254 16.6688 1.0314 16.7722 1.0105C16.8756 0.989599 16.9829 0.999891 17.0804 1.04007C17.178 1.08024 17.2614 1.14849 17.3201 1.23615C17.3788 1.32382 17.4101 1.42694 17.4101 1.53245C17.4101 1.63795 17.3788 1.74107 17.3201 1.82874C17.2614 1.9164 17.178 1.98465 17.0804 2.02483C16.9829 2.065 16.8756 2.07529 16.7722 2.05439C16.6688 2.0335 16.5739 1.98235 16.4996 1.90745C16.4503 1.85822 16.4112 1.79977 16.3845 1.73542C16.3578 1.67108 16.3441 1.6021 16.3441 1.53245C16.3441 1.46279 16.3578 1.39382 16.3845 1.32947C16.4112 1.26513 16.4503 1.20667 16.4996 1.15745ZM8.09959 8.09995C8.24477 7.95406 8.41735 7.8383 8.60741 7.7593C8.79747 7.68031 9.00126 7.63965 9.20709 7.63965C9.41291 7.63965 9.6167 7.68031 9.80676 7.7593C9.99682 7.8383 10.1694 7.95406 10.3146 8.09995C10.5341 8.31906 10.6836 8.59836 10.7443 8.9025C10.805 9.20663 10.7741 9.52193 10.6555 9.8085C10.5369 10.0951 10.336 10.34 10.0782 10.5124C9.82037 10.6847 9.51721 10.7767 9.20709 10.7767C8.89696 10.7767 8.5938 10.6847 8.33597 10.5124C8.07814 10.34 7.87723 10.0951 7.75866 9.8085C7.6401 9.52193 7.6092 9.20663 7.66989 8.9025C7.73057 8.59836 7.88012 8.31906 8.09959 8.09995ZM1.90958 17.2499C1.80751 17.3351 1.67728 17.3789 1.54451 17.3729C1.41173 17.3669 1.28599 17.3115 1.19201 17.2175C1.09802 17.1235 1.04258 16.9978 1.03659 16.865C1.03059 16.7322 1.07446 16.602 1.15958 16.4999C1.25964 16.4016 1.3943 16.3465 1.53458 16.3465C1.67486 16.3465 1.80953 16.4016 1.90958 16.4999C1.95887 16.5492 1.99797 16.6076 2.02464 16.672C2.05132 16.7363 2.06505 16.8053 2.06505 16.8749C2.06505 16.9446 2.05132 17.0136 2.02464 17.0779C1.99797 17.1423 1.95887 17.2007 1.90958 17.2499ZM9.20709 30.7824L7.72208 29.2974L9.20709 27.8124L10.6921 29.2974L9.20709 30.7824Z" fill="#0F73F6"/>
</g>
<defs>
<clipPath id="clip0_3364_7584">
<rect width="32" height="32" fill="white"/>
</clipPath>
</defs>
    </symbol>
    
    <symbol id="hero_svg-2" viewBox="0 0 32 32" fill="none">
<g clip-path="url(#clip0_3364_7582)">
<path d="M30.3999 21.3333H25.2329L29.7053 18.7507C30.074 18.5398 30.3435 18.1909 30.4543 17.7808C30.5654 17.3706 30.5085 16.9333 30.2964 16.5654L26.562 10.0991C26.3494 9.73145 25.999 9.46338 25.5886 9.35425C25.1782 9.24292 24.7402 9.30151 24.3735 9.5166L19.9001 12.0999L22.4819 7.62866C22.6963 7.26099 22.7551 6.823 22.6458 6.41162C22.5364 6.00024 22.2673 5.64941 21.8987 5.43701L15.4333 1.70264C15.0654 1.49121 14.6287 1.43481 14.2192 1.54565C13.8098 1.65649 13.4612 1.92529 13.25 2.29321L10.6667 6.76807V1.6001C10.6658 0.716797 9.94995 0.000976562 9.06665 0H1.6001C0.716797 0.000976562 0.000976562 0.716797 0 1.6001V30.3999C0.000976562 31.2832 0.716797 31.999 1.6001 32H30.3999C31.2832 31.999 31.999 31.2832 32 30.3999V22.9333C31.999 22.05 31.2832 21.3342 30.3999 21.3333ZM1.6001 21.3333C1.41797 21.3352 1.23755 21.3684 1.06665 21.4316V16H5.33643L2.25732 21.3333H1.6001ZM23.0996 21.3333H15.8064L13.363 17.1064L18.9048 13.9065L23.1694 21.2932L23.0996 21.3333ZM18.052 13.167L11.738 16.8132L7.50854 14.3711L10.7073 8.83081L18.0935 13.0952L18.052 13.167ZM9.6001 8.61523L6.32275 14.292C6.32104 14.2947 6.31836 14.2959 6.31665 14.2988L6.31372 14.3074L5.95239 14.9333H1.06665V8.53345H9.6001V8.61523ZM6.97534 15.2949L10.6714 17.4292L3.9104 21.3333H3.48901L6.97534 15.2949ZM11.9978 17.895L12.0046 17.8911L12.4395 17.6399L14.5745 21.3333H6.0437L11.9978 17.895ZM9.6001 22.3999H16V30.9333H9.6001V22.3999ZM17.0667 22.3999H23.4666V30.9333H17.0667V22.3999ZM24.9089 10.4392C25.0305 10.3674 25.1763 10.3477 25.3127 10.3843C25.4504 10.4214 25.5679 10.5112 25.6396 10.6345L29.3718 17.0974C29.4429 17.2202 29.4619 17.3662 29.4246 17.5032C29.3872 17.6399 29.2969 17.7563 29.1733 17.8259L24.093 20.7593L19.8286 13.3728L24.9089 10.4392ZM14.1748 2.82495C14.2446 2.70239 14.3606 2.61255 14.4971 2.57544C14.6333 2.53833 14.7788 2.55688 14.9014 2.6272L21.3633 6.35938C21.4875 6.43091 21.5784 6.54883 21.6157 6.68726C21.6523 6.82471 21.6321 6.97095 21.5593 7.09326L18.6272 12.1714L11.2407 7.90698L14.1748 2.82495ZM1.6001 1.06665H9.06665C9.36108 1.06714 9.59961 1.30566 9.6001 1.6001V7.46655H1.06665V1.6001C1.06714 1.30566 1.30566 1.06714 1.6001 1.06665ZM1.06665 30.3999V22.9333C1.06714 22.6389 1.30566 22.4004 1.6001 22.3999H8.53345V30.9333H1.6001C1.30566 30.9329 1.06714 30.6943 1.06665 30.3999ZM30.9333 30.3999C30.9329 30.6943 30.6943 30.9329 30.3999 30.9333H24.5334V22.3999H30.3999C30.6943 22.4004 30.9329 22.6389 30.9333 22.9333V30.3999Z" fill="#0F73F6"/>
<path d="M5.33252 24.5334C4.1543 24.5334 3.19922 25.4885 3.19922 26.6667C3.19922 27.845 4.1543 28.8 5.33252 28.8C6.51074 28.8 7.46582 27.845 7.46582 26.6667C7.4646 25.489 6.51025 24.5347 5.33252 24.5334ZM5.33252 27.7334C4.74341 27.7334 4.26587 27.2559 4.26587 26.6667C4.26587 26.0776 4.74341 25.6001 5.33252 25.6001C5.92163 25.6001 6.39917 26.0776 6.39917 26.6667C6.39868 27.2556 5.92139 27.7327 5.33252 27.7334Z" fill="#0F73F6"/>
</g>
<defs>
<clipPath id="clip0_3364_7582">
<rect width="32" height="32" fill="white"/>
</clipPath>
</defs>
    </symbol>



<symbol id="ui-kits-ico" viewBox="0 0 150 150" fill="none" stroke="currentColor">
<mask id="mask0_4941_2100" style="mask-type:luminance" maskUnits="userSpaceOnUse" x="0" y="0" width="150" height="150">
<path d="M0 1.52588e-05H150V150H0V1.52588e-05Z" fill="white"/>
</mask>
<g mask="url(#mask0_4941_2100)">
<path d="M42.2741 143.038H100.116C100.913 143.038 101.578 142.382 101.578 141.576V138.146C101.578 135.447 99.3687 133.246 96.6778 133.246H45.7039C43.0133 133.246 40.8125 135.447 40.8125 138.146V141.576C40.8125 142.382 41.4685 143.038 42.2741 143.038Z" stroke="currentColor" stroke-width="3.5" stroke-miterlimit="10" stroke-linecap="round" stroke-linejoin="round"/>
<path d="M51.7344 133.246L55.6461 120.166M86.7468 120.166L90.65 133.246" stroke="currentColor" stroke-width="3.5" stroke-miterlimit="10" stroke-linecap="round" stroke-linejoin="round"/>
<path d="M18.1562 109.054H112.821" stroke="currentColor" stroke-width="3.5" stroke-miterlimit="10" stroke-linecap="round" stroke-linejoin="round"/>
<path d="M2.19531 81.6397C2.19531 83.7658 3.93086 85.5095 6.05693 85.5095H93.1645C95.2905 85.5095 97.0261 83.7658 97.0261 81.6397V10.8239C97.0261 8.69781 95.2905 6.96226 93.1645 6.96226H6.05693C3.93086 6.96226 2.19531 8.69781 2.19531 10.8239V81.6397Z" stroke="currentColor" stroke-width="3.5" stroke-miterlimit="10" stroke-linecap="round" stroke-linejoin="round"/>
<path d="M66.124 120.166H22.1591C19.9583 120.166 18.1562 118.364 18.1562 116.163V85.5096M112.821 120.166H76.2309M97.0258 46.5931H120.229C122.429 46.5931 124.232 48.3951 124.232 50.5959V90.6005" stroke="currentColor" stroke-width="3.5" stroke-miterlimit="10" stroke-linecap="round" stroke-linejoin="round"/>
<path d="M54.6892 27.4585H97.0264M2.19531 27.4585H44.5407" stroke="currentColor" stroke-width="3.5" stroke-miterlimit="10" stroke-linecap="round" stroke-linejoin="round"/>
<path d="M85.4062 17.2021V17.2188" stroke="currentColor" stroke-width="3.5" stroke-miterlimit="10" stroke-linecap="round" stroke-linejoin="round"/>
<path d="M74.5469 17.2021V17.2188" stroke="currentColor" stroke-width="3.5" stroke-miterlimit="10" stroke-linecap="round" stroke-linejoin="round"/>
<path d="M63.6836 17.2021V17.2188" stroke="currentColor" stroke-width="3.5" stroke-miterlimit="10" stroke-linecap="round" stroke-linejoin="round"/>
<path d="M13.8125 17.2021L36.3017 17.2188" stroke="currentColor" stroke-width="3.5" stroke-miterlimit="10" stroke-linecap="round" stroke-linejoin="round"/>
<path d="M84.2273 38.7781H51.6896C50.8758 38.7781 50.2031 39.4426 50.2031 40.2646V50.0729C50.2031 50.8947 50.8758 51.5674 51.6896 51.5674H84.2273C85.0412 51.5674 85.7139 50.8947 85.7139 50.0729V40.2646C85.7139 39.4426 85.0412 38.7781 84.2273 38.7781Z" stroke="currentColor" stroke-width="3.5" stroke-miterlimit="10" stroke-linecap="round" stroke-linejoin="round"/>
<path d="M85.7136 63.7842H50.2031" stroke="currentColor" stroke-width="3.5" stroke-miterlimit="10" stroke-linecap="round" stroke-linejoin="round"/>
<path d="M67.5349 74.1902H85.7136M50.2031 74.1902H55.626" stroke="currentColor" stroke-width="3.5" stroke-miterlimit="10" stroke-linecap="round" stroke-linejoin="round"/>
<path d="M130.313 134.251H130.238" stroke="currentColor" stroke-width="3.5" stroke-miterlimit="10" stroke-linecap="round" stroke-linejoin="round"/>
<path d="M116.865 143.038H143.747C145.972 143.038 147.8 141.219 147.8 138.985V94.645C147.8 92.4193 145.972 90.6006 143.747 90.6006H116.865C114.639 90.6006 112.82 92.4193 112.82 94.645V138.985C112.82 141.219 114.639 143.038 116.865 143.038Z" stroke="currentColor" stroke-width="3.5" stroke-miterlimit="10" stroke-linecap="round" stroke-linejoin="round"/>
<path d="M15.0028 38.7782H37.4006C38.2227 38.7782 38.8953 39.4426 38.8953 40.2647V72.6955C38.8953 73.5175 38.2227 74.1902 37.4006 74.1902H15.0028C14.1808 74.1902 13.5078 73.5175 13.5078 72.6955V40.2647C13.5078 39.4426 14.1808 38.7782 15.0028 38.7782Z" stroke="currentColor" stroke-width="3.5" stroke-miterlimit="10" stroke-linecap="round" stroke-linejoin="round"/>
</g>
    </symbol>



<symbol id="social-media-ico" viewBox="0 0 150 150" fill="none">
<path fill-rule="evenodd" clip-rule="evenodd" d="M99.9734 98.6999H73.6484C72.6734 98.6999 71.9234 97.9499 71.9234 96.9749C71.9234 96.0749 72.6734 95.2499 73.6484 95.2499H99.9734V82.4999H95.9234H95.8484H95.7734H95.6984H95.5484L95.3984 82.4249H95.2484H95.0984H95.0234L94.8734 82.3499H94.7234L94.5734 82.2749H94.4984H94.3484L94.1984 82.1999L94.1234 82.1249H93.9734C93.8984 82.0499 93.8234 82.0499 93.7484 81.9749C93.5984 81.9749 93.4484 81.8999 93.3734 81.8249C91.6484 80.9249 90.5234 79.1249 90.5234 77.0249V49.9499C90.5234 48.2249 91.2734 46.7249 92.4734 45.7499L92.6234 45.6749L92.6984 45.5999L92.7734 45.5249H92.8484L92.9234 45.4499L92.9984 45.3749H93.0734V45.2999H93.1484L93.2234 45.2249H93.2984L93.3734 45.1499H93.4484L93.5234 45.0749C94.2734 44.6999 95.0984 44.4749 95.9234 44.4749H99.9734V41.9249C99.9734 39.8999 98.3984 38.3249 96.3734 38.3249H53.6234C51.5984 38.3249 50.0234 39.8999 50.0234 41.9249V51.2999H76.3484C77.3234 51.2999 78.0734 52.0499 78.0734 53.0249C78.0734 53.9249 77.3234 54.7499 76.3484 54.7499H50.0234V67.4999H54.0734H54.1484H54.2234H54.2984H54.3734H54.4484L54.5984 67.5749H54.7484H54.8234H54.8984H54.9734H55.0484L55.1234 67.6499H55.1984H55.2734L55.4234 67.7249H55.4984H55.6484V67.7999H55.7984L55.8734 67.8749H55.9484H56.0234L56.1734 67.9499L56.2484 68.0249H56.3984V68.0999H56.4734H56.5484L56.6234 68.1749L56.7734 68.2499L56.8484 68.3249L56.9984 68.3999H57.0734L57.1484 68.4749L57.2234 68.5499L57.2984 68.6249L57.3734 68.6999L57.4484 68.7749L57.5984 68.8499H57.6734V68.9249H57.7484V68.9999H57.8234V69.0749C57.8984 69.1499 57.9734 69.2249 58.1234 69.2999V69.3749L58.2734 69.5249L58.3484 69.5999L58.4234 69.6749V69.7499L58.4984 69.8999L58.5734 69.9749L58.6484 70.0499C58.6484 70.1249 58.7234 70.1999 58.7234 70.2749L58.7984 70.3499L58.8734 70.4249V70.4999L58.9484 70.5749V70.6499L59.0234 70.7249V70.8749L59.0984 70.9499C59.0984 71.0249 59.1734 71.0999 59.1734 71.0999V71.1749V71.2499H59.2484V71.3249V71.3999V71.4749V71.5499C59.3234 71.5499 59.3234 71.6249 59.3234 71.6999L59.3984 71.8499V71.9999V72.1499V72.2249L59.4734 72.3749V72.5249V72.6749V72.8249V72.9749V96.8249V100.05C59.4734 100.35 59.4734 100.65 59.3984 100.875C59.3984 101.025 59.3984 101.175 59.3234 101.25C59.3234 101.4 59.2484 101.55 59.2484 101.7L59.1734 101.775V101.85V101.925L59.0984 102.075C59.0984 102.15 59.0234 102.225 59.0234 102.3L58.9484 102.375V102.45L58.8734 102.525L58.7984 102.6V102.675L58.7234 102.75V102.825V102.9H58.6484V102.975L58.5734 103.05V103.125H58.4984V103.2H58.4234V103.275C58.3484 103.35 58.3484 103.35 58.3484 103.425L58.1984 103.5L58.1234 103.575V103.65C57.1484 104.775 55.6484 105.525 54.0734 105.525H50.0234V108.075C50.0234 110.1 51.5984 111.675 53.6234 111.675H96.3734C98.3984 111.675 99.9734 110.1 99.9734 108.075V98.6999ZM58.6484 70.0499C58.6484 70.1249 58.7234 70.1999 58.7234 70.2749L58.6484 70.0499ZM103.498 138.975H46.4984C42.0734 138.975 38.4734 135.375 38.4734 131.025V121.5V105.525H26.9234H26.7734L26.6234 105.45H26.5484H26.3984H26.2484H26.0984L25.9484 105.375H25.8734H25.7984H25.7234L25.5734 105.3C23.2484 104.7 21.5234 102.6 21.5234 100.05V72.9749C21.5234 69.9749 23.9234 67.4999 26.9234 67.4999H38.4734V28.4999V18.9749C38.4734 14.6249 42.0734 11.0249 46.4984 11.0249H103.498C107.923 11.0249 111.523 14.6249 111.523 18.9749V28.4249V28.4999V28.5749V44.4749H123.073C126.073 44.4749 128.473 46.9499 128.473 49.9499V77.0249C128.473 80.0249 126.073 82.4999 123.073 82.4999H111.523V121.5V131.025C111.523 135.375 107.923 138.975 103.498 138.975ZM40.1984 102.075H44.7734L41.8484 99.1499L41.7734 99.0749L32.2484 89.5499L24.8984 96.9749V100.05V100.125V100.2V100.275V100.35L24.9734 100.425V100.5V100.575V100.65L25.0484 100.725V100.8V100.875H25.1234V100.95V101.025L25.1984 101.1V101.175H25.2734V101.25L25.3484 101.325L25.4234 101.4L25.4984 101.475L25.5734 101.55V101.625H25.6484L25.7234 101.7L25.7984 101.775H25.8734L25.9484 101.85H26.0234L26.0984 101.925H26.1734H26.2484V102H26.3234H26.3984H26.4734L26.5484 102.075H26.6234H26.6984H26.7734H26.8484H26.9234H40.1984ZM93.9734 77.3249V77.3999V77.4749V77.5499V77.6249C94.0484 77.6249 94.0484 77.6999 94.0484 77.7749V77.8499H94.1234V77.9249V77.9999H94.1984V78.0749L94.2734 78.1499V78.2249H94.3484V78.2999L94.4234 78.3749C94.4984 78.4499 94.4984 78.5249 94.5734 78.5249V78.5999C94.9484 78.8999 95.4734 79.0499 95.9234 79.0499H101.698H101.773H109.798H109.873H123.073C124.198 79.0499 125.098 78.1499 125.098 77.0249V49.9499C125.098 48.8249 124.198 47.9249 123.073 47.9249H95.9234C95.0234 47.9249 94.1984 48.5999 93.9734 49.4249V49.4999V49.5749V49.6499V49.7249V49.7999H93.8984V49.8749V49.9499V77.0249V77.0999V77.1749H93.9734V77.2499V77.3249ZM41.9234 105.525V119.775H108.073V82.4999H103.423V96.8999V96.9749V97.0499V108.075C103.423 111.975 100.273 115.125 96.3734 115.125H53.6234C49.7234 115.125 46.5734 111.975 46.5734 108.075V105.525H41.9234ZM41.9234 123.225V131.025C41.9234 133.5 43.9484 135.6 46.4984 135.6H103.498C106.048 135.6 108.073 133.5 108.073 131.025V123.225H41.9234ZM103.423 44.4749H108.073V30.2249H41.9234V67.4999H46.5734V41.9249C46.5734 38.0249 49.7234 34.8749 53.6234 34.8749H96.3734C100.273 34.8749 103.423 38.0249 103.423 41.9249V44.4749ZM108.073 26.7749V18.9749C108.073 16.4999 106.048 14.3999 103.498 14.3999H89.0984V15.8999C89.0984 18.6749 86.8484 20.8499 84.1484 20.8499H65.8484C63.1484 20.8499 60.8984 18.6749 60.8984 15.8999V14.3999H46.4984C43.9484 14.3999 41.9234 16.4999 41.9234 18.9749V26.7749H108.073ZM64.3484 14.3999V15.8999C64.3484 16.7999 65.0234 17.4749 65.8484 17.4749H84.1484C84.9734 17.4749 85.6484 16.7999 85.6484 15.8999V14.3999H64.3484ZM81.3734 131.1H68.0234C67.1234 131.1 66.3734 130.35 66.3734 129.375C66.3734 128.475 67.1234 127.725 68.0234 127.725H81.3734C82.3484 127.725 83.0984 128.475 83.0984 129.375C83.0984 130.35 82.3484 131.1 81.3734 131.1ZM49.4984 102.075H54.0734C55.1234 102.075 56.0984 101.175 56.0984 100.05V97.5749L50.9234 92.3999L45.4484 97.9499L48.5984 101.1L49.1984 101.7H49.2734V101.775C49.3484 101.85 49.4234 101.925 49.4984 102.075ZM56.0984 92.6999V72.9749C56.0984 72.5999 56.0234 72.2999 55.8734 72.0749C55.7984 71.9999 55.7984 71.9999 55.7984 71.9249L55.7234 71.8499V71.7749H55.6484V71.6999L55.5734 71.6249V71.5499H55.4984L55.4234 71.4749L55.3484 71.3999L55.2734 71.3249H55.1984V71.2499H55.1234L55.0484 71.1749H54.9734V71.0999H54.8984C54.6734 71.0249 54.3734 70.9499 54.0734 70.9499H26.9234C25.7984 70.9499 24.8984 71.8499 24.8984 72.9749V92.0999L31.0484 85.9499C31.7234 85.2749 32.8484 85.2749 33.4484 85.9499L43.0484 95.4749L49.7234 88.7999C50.3984 88.1249 51.5234 88.1249 52.1234 88.7999L56.0984 92.6999ZM93.9734 82.1249C93.8984 82.0499 93.8234 82.0499 93.7484 81.9749L93.9734 82.1249ZM43.4984 87.8999C39.8234 87.8999 36.8234 84.8999 36.8234 81.2249C36.8234 77.5499 39.8234 74.5499 43.4984 74.5499C47.1734 74.5499 50.1734 77.5499 50.1734 81.2249C50.1734 84.8999 47.1734 87.8999 43.4984 87.8999ZM43.4984 77.9249C41.6984 77.9249 40.1984 79.4249 40.1984 81.2249C40.1984 83.0249 41.6984 84.5249 43.4984 84.5249C45.2984 84.5249 46.7984 83.0249 46.7984 81.2249C46.7984 79.4249 45.2984 77.9249 43.4984 77.9249ZM119.248 57.2999H108.373C107.473 57.2999 106.648 56.5499 106.648 55.5749C106.648 54.6749 107.473 53.8499 108.373 53.8499H119.248C120.148 53.8499 120.898 54.6749 120.898 55.5749C120.898 56.5499 120.148 57.2999 119.248 57.2999ZM102.898 57.2999H99.8234C98.8484 57.2999 98.0984 56.5499 98.0984 55.5749C98.0984 54.6749 98.8484 53.8499 99.8234 53.8499H102.898C103.873 53.8499 104.623 54.6749 104.623 55.5749C104.623 56.5499 103.873 57.2999 102.898 57.2999ZM119.248 65.1749H116.473C115.498 65.1749 114.748 64.4249 114.748 63.5249C114.748 62.5499 115.498 61.7999 116.473 61.7999H119.248C120.148 61.7999 120.898 62.5499 120.898 63.5249C120.898 64.4249 120.148 65.1749 119.248 65.1749ZM109.498 65.1749H99.8234C98.8484 65.1749 98.0984 64.4249 98.0984 63.5249C98.0984 62.5499 98.8484 61.7999 99.8234 61.7999H109.498C110.398 61.7999 111.223 62.5499 111.223 63.5249C111.223 64.4249 110.398 65.1749 109.498 65.1749ZM119.248 73.1249H110.848C109.948 73.1249 109.123 72.3749 109.123 71.3999C109.123 70.4999 109.948 69.6749 110.848 69.6749H119.248C120.148 69.6749 120.898 70.4999 120.898 71.3999C120.898 72.3749 120.148 73.1249 119.248 73.1249ZM103.723 73.1249H99.8234C98.8484 73.1249 98.0984 72.3749 98.0984 71.3999C98.0984 70.4999 98.8484 69.6749 99.8234 69.6749H103.723C104.623 69.6749 105.448 70.4999 105.448 71.3999C105.448 72.3749 104.623 73.1249 103.723 73.1249Z" fill="currentColor"/>
    </symbol>


<symbol id="presentation-ico" viewBox="0 0 150 150" fill="none" xmlns="http://www.w3.org/2000/svg">
<path d="M72.3712 62.0563H50.2266V39.8555" stroke="currentColor" stroke-width="3.5" stroke-miterlimit="10" stroke-linecap="round" stroke-linejoin="round"/>
<path d="M146.777 6.33521H3.22266V22.0849H146.777V6.33521Z" stroke="currentColor" stroke-width="3.5" stroke-miterlimit="10" stroke-linecap="round" stroke-linejoin="round"/>
<path d="M10.7734 99.8557V24.2595" stroke="currentColor" stroke-width="3.5" stroke-miterlimit="10" stroke-linecap="round" stroke-linejoin="round"/>
<path d="M139.227 24.2595V99.8557" stroke="currentColor" stroke-width="3.5" stroke-miterlimit="10" stroke-linecap="round" stroke-linejoin="round"/>
<path d="M75 120.111V125.603" stroke="currentColor" stroke-width="3.5" stroke-miterlimit="10" stroke-linecap="round" stroke-linejoin="round"/>
<path d="M74.9997 143.665C79.5494 143.665 83.2377 139.968 83.2377 135.407C83.2377 130.847 79.5494 127.15 74.9997 127.15C70.45 127.15 66.7617 130.847 66.7617 135.407C66.7617 139.968 70.45 143.665 74.9997 143.665Z" stroke="currentColor" stroke-width="3.5" stroke-miterlimit="10" stroke-linecap="round" stroke-linejoin="round"/>
<path d="M50.2284 86.8876C63.9093 86.8876 74.9998 75.7707 74.9998 62.0573C74.9998 48.3439 63.9093 37.2271 50.2284 37.2271C36.5476 37.2271 25.457 48.3439 25.457 62.0573C25.457 75.7707 36.5476 86.8876 50.2284 86.8876Z" stroke="currentColor" stroke-width="3.5" stroke-miterlimit="10" stroke-linecap="round" stroke-linejoin="round"/>
<path d="M121.525 37.2271H89.5859V56.8035H121.525V37.2271Z" stroke="currentColor" stroke-width="3.5" stroke-miterlimit="10" stroke-linecap="round" stroke-linejoin="round"/>
<path d="M89.5859 70.4119H121.525" stroke="currentColor" stroke-width="3.5" stroke-miterlimit="10" stroke-linecap="round" stroke-linejoin="round"/>
<path d="M89.5859 83.3726H121.525" stroke="currentColor" stroke-width="3.5" stroke-miterlimit="10" stroke-linecap="round" stroke-linejoin="round"/>
<path d="M146.777 102.03H3.22266V117.78H146.777V102.03Z" stroke="currentColor" stroke-width="3.5" stroke-miterlimit="10" stroke-linecap="round" stroke-linejoin="round"/>
</symbol>



<symbol id="fonts-ico" viewBox="0 0 150 150" fill="none" xmlns="http://www.w3.org/2000/svg">
<path d="M75 60.9375V89.0625" stroke="currentColor" stroke-width="3.5" stroke-miterlimit="10" stroke-linecap="round" stroke-linejoin="round"/>
<path d="M65.625 60.9375H84.375" stroke="currentColor" stroke-width="3.5" stroke-miterlimit="10" stroke-linecap="round" stroke-linejoin="round"/>
<path d="M107.812 107.812H42.1875V42.1875H107.812V107.812Z" stroke="currentColor" stroke-width="3.5" stroke-miterlimit="10" stroke-linecap="round" stroke-linejoin="round"/>
<mask id="mask0_4941_1289" style="mask-type:luminance" maskUnits="userSpaceOnUse" x="0" y="0" width="150" height="150">
<path d="M0 1.52588e-05H150V150H0V1.52588e-05Z" fill="white"/>
</mask>
<g mask="url(#mask0_4941_1289)">
<path d="M23.4375 23.4375H4.39453V4.39453H23.4375V23.4375Z" stroke="currentColor" stroke-width="3.5" stroke-miterlimit="10" stroke-linecap="round" stroke-linejoin="round"/>
<path d="M23.4375 145.605H4.39453V126.563H23.4375V145.605Z" stroke="currentColor" stroke-width="3.5" stroke-miterlimit="10" stroke-linecap="round" stroke-linejoin="round"/>
<path d="M145.605 145.605H126.562V126.563H145.605V145.605Z" stroke="currentColor" stroke-width="3.5" stroke-miterlimit="10" stroke-linecap="round" stroke-linejoin="round"/>
<path d="M14.0625 23.4375V126.562" stroke="currentColor" stroke-width="3.5" stroke-miterlimit="10" stroke-linecap="round" stroke-linejoin="round"/>
<path d="M126.562 23.4375H145.605V4.39453H126.562V23.4375Z" stroke="currentColor" stroke-width="3.5" stroke-miterlimit="10" stroke-linecap="round" stroke-linejoin="round"/>
<path d="M135.938 42.1875V51.5625" stroke="currentColor" stroke-width="3.5" stroke-miterlimit="10" stroke-linecap="round" stroke-linejoin="round"/>
<path d="M135.938 70.3125V79.6875" stroke="currentColor" stroke-width="3.5" stroke-miterlimit="10" stroke-linecap="round" stroke-linejoin="round"/>
<path d="M135.938 98.4375V107.812" stroke="currentColor" stroke-width="3.5" stroke-miterlimit="10" stroke-linecap="round" stroke-linejoin="round"/>
<path d="M23.4375 14.0625H126.562" stroke="currentColor" stroke-width="3.5" stroke-miterlimit="10" stroke-linecap="round" stroke-linejoin="round"/>
<path d="M107.812 135.938H98.4375" stroke="currentColor" stroke-width="3.5" stroke-miterlimit="10" stroke-linecap="round" stroke-linejoin="round"/>
<path d="M79.6875 135.938H70.3125" stroke="currentColor" stroke-width="3.5" stroke-miterlimit="10" stroke-linecap="round" stroke-linejoin="round"/>
<path d="M51.5625 135.938H42.1875" stroke="currentColor" stroke-width="3.5" stroke-miterlimit="10" stroke-linecap="round" stroke-linejoin="round"/>
</g>
    </symbol>



    <symbol id="illustrations-ico" viewBox="0 0 150 150" fill="none" xmlns="http://www.w3.org/2000/svg">
<path d="M9.08203 79.8253H18.6349C23.8957 79.8253 28.1604 75.5605 28.1604 70.2997C28.1604 65.0389 32.4252 60.7741 37.686 60.7741H50.6408C58.8478 60.7741 65.5008 54.1211 65.5008 45.9142C65.5008 37.7072 58.8478 31.0542 50.6408 31.0542" stroke="currentColor" stroke-width="3.5" stroke-miterlimit="10" stroke-linejoin="round"/>
<path d="M105.508 114.551C117.958 114.551 128.051 104.458 128.051 92.0075C128.051 82.3943 122.034 74.1865 113.56 70.9451" stroke="currentColor" stroke-width="3.5" stroke-miterlimit="10" stroke-linejoin="round"/>
<path d="M94.408 69.4648H70.1549C65.2916 69.4648 61.3491 73.4073 61.3491 78.2706C61.3491 83.1339 57.4066 87.0764 52.5434 87.0764H51.237C43.6503 87.0764 37.5 93.2267 37.5 100.813C37.4997 108.4 43.65 114.551 51.2367 114.551" stroke="currentColor" stroke-width="3.5" stroke-miterlimit="10" stroke-linejoin="round"/>
<path d="M92.961 114.551V120.996C92.961 124.555 90.0753 127.441 86.5157 127.441H63.4805C59.9209 127.441 57.0352 124.555 57.0352 120.996V114.551" stroke="currentColor" stroke-width="3.5" stroke-miterlimit="10" stroke-linejoin="round"/>
<path d="M118.117 65.296L103.066 54.7573" stroke="currentColor" stroke-width="3.5" stroke-miterlimit="10" stroke-linejoin="round"/>
<path d="M133.887 140.332H16.1133C8.99385 140.332 3.22266 134.561 3.22266 127.441V114.551H146.777V127.441C146.777 134.561 141.006 140.332 133.887 140.332Z" stroke="currentColor" stroke-width="3.5" stroke-miterlimit="10" stroke-linecap="round" stroke-linejoin="round"/>
<path d="M95.6289 69.3617C98.8492 61.6341 104.445 51.7045 111.636 41.4339C125.93 21.021 141.114 6.9919 145.551 10.0988C149.988 13.2058 141.998 32.2725 127.705 52.6854C120.488 62.9923 113.044 71.6718 106.871 77.3396" stroke="currentColor" stroke-width="3.5" stroke-miterlimit="10" stroke-linecap="round" stroke-linejoin="round"/>
<path d="M83.4253 84.0278C84.2717 88.3743 83.2284 92.6431 80.875 95.9941C89.3099 99.3969 99.2289 96.8654 104.93 89.3944C109.201 83.7975 108.195 75.7005 102.424 71.6686C96.8945 67.8058 89.28 69.1517 85.4102 74.6783C83.4288 77.5081 82.8133 80.8854 83.4253 84.0278Z" stroke="currentColor" stroke-width="3.5" stroke-miterlimit="10" stroke-linecap="round" stroke-linejoin="round"/>
<path d="M140.918 114.551V42.7734C140.918 40.1089 140.029 37.6521 138.531 35.6836" stroke="currentColor" stroke-width="3.5" stroke-miterlimit="10" stroke-linejoin="round"/>
<path d="M119.241 31.0547H20.8008C14.3288 31.0547 9.08203 36.3015 9.08203 42.7734V114.551" stroke="currentColor" stroke-width="3.5" stroke-miterlimit="10" stroke-linejoin="round"/>
    </symbol>
    

        <symbol id="arrow-left-ico" viewBox="0 0 24 24" fill="none" xmlns="http://www.w3.org/2000/svg">
<path d="M15 18L9 12L15 6" stroke="#0D0D15" stroke-width="2" stroke-linecap="round" stroke-linejoin="round"/>
    </symbol>

        <symbol id="trending-cards-ico" viewBox="0 0 24 24" fill="none">
<path d="M12 15C8.68629 15 6 12.3137 6 9V3.44444C6 3.0306 6 2.82367 6.06031 2.65798C6.16141 2.38021 6.38021 2.16141 6.65798 2.06031C6.82367 2 7.0306 2 7.44444 2H16.5556C16.9694 2 17.1763 2 17.342 2.06031C17.6198 2.16141 17.8386 2.38021 17.9397 2.65798C18 2.82367 18 3.0306 18 3.44444V9C18 12.3137 15.3137 15 12 15ZM12 15V18M18 4H20.5C20.9659 4 21.1989 4 21.3827 4.07612C21.6277 4.17761 21.8224 4.37229 21.9239 4.61732C22 4.80109 22 5.03406 22 5.5V6C22 6.92997 22 7.39496 21.8978 7.77646C21.6204 8.81173 20.8117 9.62038 19.7765 9.89778C19.395 10 18.93 10 18 10M6 4H3.5C3.03406 4 2.80109 4 2.61732 4.07612C2.37229 4.17761 2.17761 4.37229 2.07612 4.61732C2 4.80109 2 5.03406 2 5.5V6C2 6.92997 2 7.39496 2.10222 7.77646C2.37962 8.81173 3.18827 9.62038 4.22354 9.89778C4.60504 10 5.07003 10 6 10M7.44444 22H16.5556C16.801 22 17 21.801 17 21.5556C17 19.5919 15.4081 18 13.4444 18H10.5556C8.59188 18 7 19.5919 7 21.5556C7 21.801 7.19898 22 7.44444 22Z" stroke="#F8F7FF" stroke-width="2" stroke-linecap="round" stroke-linejoin="round"/>
    </symbol>

        <symbol id="arrow-left-link" viewBox="0 0 24 24" fill="none" xmlns="http://www.w3.org/2000/svg">
<path d="M15 18L9 12L15 6" stroke="currentColor" stroke-width="2" stroke-linecap="round" stroke-linejoin="round"/>
    </symbol>

    <symbol id="pricing-plan__list-items-ico" viewBox="0 0 20 20" fill="none">
<g clip-path="url(#clip0_594_633)">
<path d="M19.7071 2.94916C19.3166 2.55861 18.6835 2.55861 18.2929 2.94916L6.31228 14.9299L1.70713 10.3247C1.31662 9.9342 0.683496 9.93424 0.29291 10.3247C-0.0976367 10.7153 -0.0976367 11.3484 0.29291 11.7389L5.60518 17.0511C5.99557 17.4416 6.62916 17.4413 7.01939 17.0511L19.7071 4.36338C20.0977 3.97287 20.0976 3.33971 19.7071 2.94916Z" fill="#0F73F6"/>
</g>
<defs>
<clipPath id="clip0_594_633">
<rect width="20" height="20" fill="white"/>
</clipPath>
</defs>
    </symbol>



    <symbol id="x-twitter-ico" viewBox="0 0 24 24" fill="none">
<path d="M19.6441 6.18005C20.5012 5.64387 21.1425 4.7996 21.4483 3.80486C20.6429 4.30492 19.7618 4.65717 18.8429 4.84639C17.569 3.43621 15.5505 3.09303 13.9155 4.00862C12.2804 4.92421 11.4335 6.87189 11.848 8.76335C8.54901 8.59003 5.47544 6.95936 3.3921 4.2771C2.30485 6.2395 2.86046 8.74812 4.66182 10.01C4.01043 9.98806 3.37348 9.80351 2.80409 9.4717C2.80409 9.48971 2.80409 9.50772 2.80409 9.52573C2.80447 11.5699 4.18125 13.3307 6.09599 13.7358C5.49179 13.9079 4.85802 13.9332 4.24304 13.8099C4.78153 15.558 6.32121 16.7556 8.07611 16.7914C6.62265 17.9851 4.82769 18.6325 2.98002 18.6293C2.65252 18.6298 2.32528 18.6101 2 18.5703C3.87627 19.8319 6.06002 20.5016 8.29028 20.4992C11.3931 20.5215 14.375 19.2415 16.569 16.9455C18.763 14.6494 19.986 11.529 19.9644 8.28211C19.9644 8.09601 19.9603 7.91092 19.952 7.72683C20.7556 7.11913 21.4491 6.3663 22 5.50372C21.2514 5.85095 20.4573 6.07893 19.6441 6.18005Z" fill="#0D0D15"/>
    </symbol>



    <symbol id="facebook-ico" viewBox="0 0 24 24" fill="none">
    
<path d="M2 12.0614C2.00116 17.0111 5.5784 21.2255 10.437 22.0012V14.9692H7.9V12.0614H10.44V9.84786C10.3265 8.79898 10.6825 7.75363 11.4116 6.99534C12.1408 6.23703 13.1674 5.84437 14.213 5.92385C14.9635 5.93604 15.7122 6.0033 16.453 6.12508V8.59922H15.189C14.7538 8.54187 14.3164 8.68647 13.9998 8.99229C13.6832 9.2981 13.5218 9.73203 13.561 10.1718V12.0614H16.332L15.889 14.9702H13.561V22.0012C18.8155 21.1657 22.5001 16.3373 21.9455 11.0141C21.3909 5.69079 16.7913 1.73615 11.4788 2.01511C6.16636 2.29407 2.00084 6.70896 2 12.0614Z" fill="#0D0D15"/>
    </symbol>



    <symbol id="telegram" viewBox="0 0 24 24" fill="none">
<path d="M23.5468 2.42273C23.1374 2.11452 22.4944 2.07042 21.8295 2.30739H21.8285C21.1292 2.55649 2.03537 9.82768 1.25808 10.1247C1.11671 10.1684 -0.118008 10.5774 0.00917513 11.4885C0.122712 12.3099 1.11507 12.6501 1.23625 12.6893L6.0905 14.165C6.41255 15.1168 7.59977 18.6283 7.86233 19.3785C8.02608 19.8462 8.293 20.4607 8.7608 20.5871C9.17128 20.7277 9.57957 20.5993 9.84376 20.4151L12.8116 17.9712L17.6025 21.2884L17.7166 21.349C18.0419 21.4769 18.3536 21.5409 18.6511 21.5409C18.8809 21.5409 19.1014 21.5026 19.3121 21.426C20.0299 21.1643 20.317 20.5571 20.347 20.4883L23.9256 3.97399C24.144 3.09199 23.8405 2.64323 23.5468 2.42273ZM10.3716 14.7553L8.73405 18.6322L7.0965 13.786L19.6511 5.54754L10.3716 14.7553Z" fill="#0D0D15"/>
    </symbol>



    <symbol id="grid-ico" viewBox="0 0 24 24" fill="none" xmlns="http://www.w3.org/2000/svg">
<path d="M8.4 3H4.6C4.03995 3 3.75992 3 3.54601 3.10899C3.35785 3.20487 3.20487 3.35785 3.10899 3.54601C3 3.75992 3 4.03995 3 4.6V8.4C3 8.96005 3 9.24008 3.10899 9.45399C3.20487 9.64215 3.35785 9.79513 3.54601 9.89101C3.75992 10 4.03995 10 4.6 10H8.4C8.96005 10 9.24008 10 9.45399 9.89101C9.64215 9.79513 9.79513 9.64215 9.89101 9.45399C10 9.24008 10 8.96005 10 8.4V4.6C10 4.03995 10 3.75992 9.89101 3.54601C9.79513 3.35785 9.64215 3.20487 9.45399 3.10899C9.24008 3 8.96005 3 8.4 3Z" stroke="currentColor" stroke-width="2" stroke-linecap="round" stroke-linejoin="round"/>
<path d="M19.4 3H15.6C15.0399 3 14.7599 3 14.546 3.10899C14.3578 3.20487 14.2049 3.35785 14.109 3.54601C14 3.75992 14 4.03995 14 4.6V8.4C14 8.96005 14 9.24008 14.109 9.45399C14.2049 9.64215 14.3578 9.79513 14.546 9.89101C14.7599 10 15.0399 10 15.6 10H19.4C19.9601 10 20.2401 10 20.454 9.89101C20.6422 9.79513 20.7951 9.64215 20.891 9.45399C21 9.24008 21 8.96005 21 8.4V4.6C21 4.03995 21 3.75992 20.891 3.54601C20.7951 3.35785 20.6422 3.20487 20.454 3.10899C20.2401 3 19.9601 3 19.4 3Z" stroke="currentColor" stroke-width="2" stroke-linecap="round" stroke-linejoin="round"/>
<path d="M19.4 14H15.6C15.0399 14 14.7599 14 14.546 14.109C14.3578 14.2049 14.2049 14.3578 14.109 14.546C14 14.7599 14 15.0399 14 15.6V19.4C14 19.9601 14 20.2401 14.109 20.454C14.2049 20.6422 14.3578 20.7951 14.546 20.891C14.7599 21 15.0399 21 15.6 21H19.4C19.9601 21 20.2401 21 20.454 20.891C20.6422 20.7951 20.7951 20.6422 20.891 20.454C21 20.2401 21 19.9601 21 19.4V15.6C21 15.0399 21 14.7599 20.891 14.546C20.7951 14.3578 20.6422 14.2049 20.454 14.109C20.2401 14 19.9601 14 19.4 14Z" stroke="currentColor" stroke-width="2" stroke-linecap="round" stroke-linejoin="round"/>
<path d="M8.4 14H4.6C4.03995 14 3.75992 14 3.54601 14.109C3.35785 14.2049 3.20487 14.3578 3.10899 14.546C3 14.7599 3 15.0399 3 15.6V19.4C3 19.9601 3 20.2401 3.10899 20.454C3.20487 20.6422 3.35785 20.7951 3.54601 20.891C3.75992 21 4.03995 21 4.6 21H8.4C8.96005 21 9.24008 21 9.45399 20.891C9.64215 20.7951 9.79513 20.6422 9.89101 20.454C10 20.2401 10 19.9601 10 19.4V15.6C10 15.0399 10 14.7599 9.89101 14.546C9.79513 14.3578 9.64215 14.2049 9.45399 14.109C9.24008 14 8.96005 14 8.4 14Z" stroke="currentColor" stroke-width="2" stroke-linecap="round" stroke-linejoin="round"/>
    </symbol>


    <symbol id="list-ico" viewBox="0 0 24 24" fill="none" xmlns="http://www.w3.org/2000/svg">
<path d="M21 12L9 12M21 6L9 6M21 18L9 18M5 12C5 12.5523 4.55228 13 4 13C3.44772 13 3 12.5523 3 12C3 11.4477 3.44772 11 4 11C4.55228 11 5 11.4477 5 12ZM5 6C5 6.55228 4.55228 7 4 7C3.44772 7 3 6.55228 3 6C3 5.44772 3.44772 5 4 5C4.55228 5 5 5.44772 5 6ZM5 18C5 18.5523 4.55228 19 4 19C3.44772 19 3 18.5523 3 18C3 17.4477 3.44772 17 4 17C4.55228 17 5 17.4477 5 18Z" stroke="currentColor" stroke-width="2" stroke-linecap="round" stroke-linejoin="round"/>
    </symbol>


    <symbol id="cancer-ico" viewBox="0 0 16 16" fill="none" xmlns="http://www.w3.org/2000/svg">
    
<path d="M12 4L4 12M4 4L12 12" stroke="#0D0D15" stroke-width="2" stroke-linecap="round" stroke-linejoin="round"/>
    </symbol>


    <symbol id="favorite-ico" viewBox="0 0 24 24" fill="none" xmlns="http://www.w3.org/2000/svg">
<path d="M19.5013 12.5719L12.0013 19.9999L4.50128 12.5719C4.00658 12.0905 3.61692 11.5119 3.35683 10.8726C3.09673 10.2332 2.97184 9.54688 2.99002 8.85687C3.00819 8.16685 3.16904 7.48807 3.46244 6.86327C3.75583 6.23847 4.17541 5.68119 4.69476 5.22651C5.21411 4.77184 5.82198 4.42962 6.48009 4.22141C7.1382 4.01321 7.83228 3.94352 8.51865 4.01673C9.20501 4.08995 9.86878 4.30449 10.4682 4.64684C11.0675 4.98919 11.5895 5.45193 12.0013 6.00593C12.4148 5.45595 12.9374 4.99725 13.5364 4.65854C14.1353 4.31982 14.7978 4.10838 15.4822 4.03745C16.1666 3.96652 16.8584 4.03763 17.5141 4.24632C18.1697 4.45502 18.7753 4.79681 19.2928 5.2503C19.8104 5.70379 20.2287 6.25922 20.5217 6.88182C20.8147 7.50443 20.976 8.18082 20.9956 8.86864C21.0152 9.55647 20.8925 10.2409 20.6354 10.8792C20.3783 11.5174 19.9922 12.0958 19.5013 12.5779" stroke="#273544" stroke-opacity="0.55" stroke-width="2" stroke-linecap="round" stroke-linejoin="round"/>
    </symbol>


    <symbol id="qoute-img" viewBox="0 0 48 38" fill="none" xmlns="http://www.w3.org/2000/svg">
<path d="M4.53229 3.80003C1.86562 6.73336 0.265625 9.93336 0.265625 15.2667C0.265625 24.6 6.93229 32.8667 16.2656 37.1334L18.6656 33.6667C9.86563 28.8667 7.99896 22.7334 7.46563 18.7334C8.79896 19.5334 10.6656 19.8 12.5323 19.5334C17.3323 19 21.0656 15.2667 21.0656 10.2C21.0656 7.80003 19.999 5.40003 18.399 3.53336C16.5323 1.66669 14.399 0.866695 11.7323 0.866695C8.79896 0.866695 6.13229 2.20002 4.53229 3.80003ZM31.199 3.80003C28.5323 6.73336 26.9323 9.93336 26.9323 15.2667C26.9323 24.6 33.599 32.8667 42.9323 37.1334L45.3323 33.6667C36.5323 28.8667 34.6656 22.7334 34.1323 18.7334C35.4656 19.5334 37.3323 19.8 39.199 19.5334C43.999 19 47.7323 15.2667 47.7323 10.2C47.7323 7.80003 46.6656 5.40003 45.0656 3.53336C43.4656 1.66669 41.0656 0.866695 38.399 0.866695C35.4656 0.866695 32.799 2.20002 31.199 3.80003Z" fill="#0F73F6"/>
    </symbol>


    <symbol id="phone-ico" viewBox="0 0 22 22" fill="none" xmlns="http://www.w3.org/2000/svg">
    
<path d="M7.38028 7.85335C8.07627 9.30297 9.02506 10.6616 10.2266 11.8632C11.4282 13.0648 12.7869 14.0136 14.2365 14.7096C14.3612 14.7694 14.4235 14.7994 14.5024 14.8224C14.7828 14.9041 15.127 14.8454 15.3644 14.6754C15.4313 14.6275 15.4884 14.5704 15.6027 14.4561C15.9523 14.1064 16.1271 13.9316 16.3029 13.8174C16.9658 13.3864 17.8204 13.3864 18.4833 13.8174C18.6591 13.9316 18.8339 14.1064 19.1835 14.4561L19.3783 14.6509C19.9098 15.1824 20.1755 15.4481 20.3198 15.7335C20.6069 16.301 20.6069 16.9713 20.3198 17.5389C20.1755 17.8242 19.9098 18.09 19.3783 18.6214L19.2207 18.779C18.6911 19.3087 18.4263 19.5735 18.0662 19.7757C17.6667 20.0001 17.0462 20.1615 16.588 20.1601C16.1751 20.1589 15.8928 20.0788 15.3284 19.9186C12.295 19.0576 9.43264 17.4332 7.04466 15.0452C4.65668 12.6572 3.03221 9.79483 2.17124 6.76144C2.01103 6.19699 1.93092 5.91477 1.9297 5.50182C1.92833 5.0436 2.08969 4.42311 2.31411 4.0236C2.51636 3.66357 2.78117 3.39876 3.3108 2.86913L3.46843 2.7115C3.99987 2.18006 4.2656 1.91433 4.55098 1.76999C5.11854 1.48292 5.7888 1.48292 6.35636 1.76999C6.64174 1.91433 6.90747 2.18006 7.43891 2.7115L7.63378 2.90637C7.98338 3.25597 8.15819 3.43078 8.27247 3.60655C8.70347 4.26945 8.70347 5.12403 8.27247 5.78692C8.15819 5.96269 7.98338 6.1375 7.63378 6.4871C7.51947 6.60142 7.46231 6.65857 7.41447 6.72538C7.24446 6.96281 7.18576 7.30707 7.26748 7.58743C7.29048 7.66632 7.32041 7.72866 7.38028 7.85335Z" stroke="#0265DC" stroke-width="2" stroke-linecap="round" stroke-linejoin="round"/>

    </symbol>


    <symbol id="email-ico" viewBox="0 0 22 18" fill="none" xmlns="http://www.w3.org/2000/svg">
<path d="M1 4L9.16492 9.71544C9.82609 10.1783 10.1567 10.4097 10.5163 10.4993C10.8339 10.5785 11.1661 10.5785 11.4837 10.4993C11.8433 10.4097 12.1739 10.1783 12.8351 9.71544L21 4M5.8 17H16.2C17.8802 17 18.7202 17 19.362 16.673C19.9265 16.3854 20.3854 15.9265 20.673 15.362C21 14.7202 21 13.8802 21 12.2V5.8C21 4.11984 21 3.27976 20.673 2.63803C20.3854 2.07354 19.9265 1.6146 19.362 1.32698C18.7202 1 17.8802 1 16.2 1H5.8C4.11984 1 3.27976 1 2.63803 1.32698C2.07354 1.6146 1.6146 2.07354 1.32698 2.63803C1 3.27976 1 4.11984 1 5.8V12.2C1 13.8802 1 14.7202 1.32698 15.362C1.6146 15.9265 2.07354 16.3854 2.63803 16.673C3.27976 17 4.11984 17 5.8 17Z" stroke="#0265DC" stroke-width="2" stroke-linecap="round" stroke-linejoin="round"/>
    </symbol>


    <symbol id="clock-ico" viewBox="0 0 22 22" fill="none" xmlns="http://www.w3.org/2000/svg">
<path d="M11 5V11L15 13M21 11C21 16.5228 16.5228 21 11 21C5.47715 21 1 16.5228 1 11C1 5.47715 5.47715 1 11 1C16.5228 1 21 5.47715 21 11Z" stroke="#0265DC" stroke-width="2" stroke-linecap="round" stroke-linejoin="round"/>
    </symbol>


    <symbol id="location-ico" viewBox="0 0 18 22" fill="none" xmlns="http://www.w3.org/2000/svg">

<path d="M9 21C10 16 17 15.4183 17 9C17 4.58172 13.4183 1 9 1C4.58172 1 1 4.58172 1 9C1 15.4183 8 16 9 21Z" stroke="#0265DC" stroke-width="2" stroke-linecap="round" stroke-linejoin="round"/>
<path d="M9 12C10.6569 12 12 10.6569 12 9C12 7.34315 10.6569 6 9 6C7.34315 6 6 7.34315 6 9C6 10.6569 7.34315 12 9 12Z" stroke="#0265DC" stroke-width="2" stroke-linecap="round" stroke-linejoin="round"/>
    </symbol>


    <symbol id="" viewBox="0 0 0 0">
    
    </symbol>


    <symbol id="" viewBox="0 0 0 0">
    </symbol>


    <symbol id="" viewBox="0 0 0 0">
    </symbol>


    <symbol id="" viewBox="0 0 0 0">
    </symbol>
</svg>
